<svg width="25" height="24" viewBox="0 0 25 24" fill="none" xmlns="http://www.w3.org/2000/svg">
<path d="M9.04434 8.85335C9.74034 10.303 10.6891 11.6616 11.8907 12.8632C13.0923 14.0648 14.4509 15.0136 15.9005 15.7096C16.0252 15.7694 16.0876 15.7994 16.1665 15.8224C16.4468 15.9041 16.7911 15.8454 17.0285 15.6754C17.0953 15.6275 17.1525 15.5704 17.2668 15.4561C17.6164 15.1064 17.7912 14.9316 17.967 14.8174C18.6299 14.3864 19.4844 14.3864 20.1473 14.8174C20.3231 14.9316 20.4979 15.1064 20.8475 15.4561L21.0424 15.6509C21.5738 16.1824 21.8396 16.4481 21.9839 16.7335C22.271 17.301 22.271 17.9713 21.9839 18.5389C21.8396 18.8242 21.5738 19.09 21.0424 19.6214L20.8848 19.779C20.3551 20.3087 20.0903 20.5735 19.7303 20.7757C19.3308 21.0001 18.7103 21.1615 18.2521 21.1601C17.8391 21.1589 17.5569 21.0788 16.9925 20.9186C13.9591 20.0576 11.0967 18.4332 8.70872 16.0452C6.32074 13.6572 4.69627 10.7948 3.8353 7.76144C3.67509 7.19699 3.59499 6.91477 3.59376 6.50182C3.59239 6.0436 3.75376 5.42311 3.97818 5.0236C4.18043 4.66357 4.44524 4.39876 4.97486 3.86913L5.13249 3.7115C5.66394 3.18006 5.92966 2.91433 6.21504 2.76999C6.7826 2.48292 7.45287 2.48292 8.02043 2.76999C8.30581 2.91433 8.57153 3.18006 9.10297 3.7115L9.29784 3.90637C9.64745 4.25597 9.82225 4.43078 9.93654 4.60655C10.3675 5.26945 10.3675 6.12403 9.93653 6.78692C9.82225 6.96269 9.64745 7.1375 9.29784 7.4871C9.18353 7.60142 9.12637 7.65857 9.07853 7.72538C8.90852 7.96281 8.84982 8.30707 8.93154 8.58743C8.95454 8.66632 8.98447 8.72866 9.04434 8.85335Z" stroke="#23920A" stroke-width="2" stroke-linecap="round" stroke-linejoin="round"/>
</svg>
