<svg width="129" height="128" viewBox="0 0 129 128" fill="none" xmlns="http://www.w3.org/2000/svg">
<rect x="0.80957" width="127.381" height="127.381" rx="63.6906" fill="#FFDCDA"/>
<g clip-path="url(#clip0_14996_109194)">
<path d="M64.5 27.6914C44.6488 27.6914 28.5 43.8402 28.5 63.6914C28.5 83.5426 44.6488 99.6914 64.5 99.6914C84.3512 99.6914 100.5 83.5426 100.5 63.6914C100.5 43.8402 84.3512 27.6914 64.5 27.6914Z" fill="#E92215"/>
<path d="M77.7573 72.7063C78.9301 73.8797 78.9301 75.7753 77.7573 76.9487C77.1723 77.5337 76.4043 77.8276 75.6358 77.8276C74.8679 77.8276 74.0999 77.5337 73.5149 76.9487L64.5001 67.9333L55.4852 76.9487C54.9002 77.5337 54.1323 77.8276 53.3643 77.8276C52.5958 77.8276 51.8279 77.5337 51.2429 76.9487C50.0701 75.7753 50.0701 73.8797 51.2429 72.7063L60.2583 63.6915L51.2429 54.6767C50.0701 53.5033 50.0701 51.6076 51.2429 50.4343C52.4162 49.2615 54.3119 49.2615 55.4852 50.4343L64.5001 59.4497L73.5149 50.4343C74.6882 49.2615 76.5839 49.2615 77.7573 50.4343C78.9301 51.6076 78.9301 53.5033 77.7573 54.6767L68.7419 63.6915L77.7573 72.7063Z" fill="#FAFAFA"/>
</g>
<defs>
<clipPath id="clip0_14996_109194">
<rect width="72" height="72" fill="white" transform="translate(28.5 27.6914)"/>
</clipPath>
</defs>
</svg>
