<svg width="25" height="24" viewBox="0 0 25 24" fill="none" xmlns="http://www.w3.org/2000/svg">
<path d="M2.33203 7L10.497 12.7154C11.1581 13.1783 11.4887 13.4097 11.8483 13.4993C12.1659 13.5785 12.4981 13.5785 12.8158 13.4993C13.1754 13.4097 13.5059 13.1783 14.1671 12.7154L22.332 7M7.13203 20H17.532C19.2122 20 20.0523 20 20.694 19.673C21.2585 19.3854 21.7174 18.9265 22.0051 18.362C22.332 17.7202 22.332 16.8802 22.332 15.2V8.8C22.332 7.11984 22.332 6.27976 22.0051 5.63803C21.7174 5.07354 21.2585 4.6146 20.694 4.32698C20.0523 4 19.2122 4 17.532 4H7.13203C5.45187 4 4.6118 4 3.97006 4.32698C3.40557 4.6146 2.94663 5.07354 2.65901 5.63803C2.33203 6.27976 2.33203 7.11984 2.33203 8.8V15.2C2.33203 16.8802 2.33203 17.7202 2.65901 18.362C2.94663 18.9265 3.40557 19.3854 3.97006 19.673C4.6118 20 5.45187 20 7.13203 20Z" stroke="#23920A" stroke-width="2" stroke-linecap="round" stroke-linejoin="round"/>
</svg>
