<svg width="272" height="56" viewBox="0 0 272 56" fill="none" xmlns="http://www.w3.org/2000/svg">
<path d="M41.0749 4.57129H23.4725C14.9661 4.57129 8.07031 11.4091 8.07031 19.844V37.2986C8.07031 45.7335 14.9661 52.5713 23.4725 52.5713H41.0749C49.5813 52.5713 56.4771 45.7335 56.4771 37.2986V19.844C56.4771 11.4091 49.5813 4.57129 41.0749 4.57129Z" stroke="#E8A719"/>
<path d="M247.42 37.0937C252.233 37.0937 255.704 34.235 255.704 30.2709C255.704 26.7642 252.048 23.9816 247.42 23.9816C242.791 23.9816 239.181 26.8785 239.181 30.6901C239.181 34.4637 242.652 37.0937 247.42 37.0937ZM255.612 24.5915H255.704V12.8135H259.777V31.4906C259.777 35.2642 260.796 36.7126 263.434 36.7126V40.0668C260.24 40.0668 257.973 38.9233 257.093 36.8269C254.964 39.152 251.631 40.448 247.42 40.448C240.57 40.448 235.016 36.0646 235.016 30.6139C235.016 24.9727 240.199 20.6274 246.91 20.6274C250.428 20.6274 254.084 22.3045 255.612 24.5915Z" fill="#002444"/>
<path d="M221.022 37.0937C225.79 37.0937 229.261 34.4637 229.261 30.6901C229.261 26.8785 225.651 23.9816 221.022 23.9816C216.394 23.9816 212.737 26.7642 212.737 30.2709C212.737 34.235 216.209 37.0937 221.022 37.0937ZM208.664 12.8135H212.737V24.5915H212.83C214.45 22.1902 218.06 20.6274 221.948 20.6274C228.52 20.6274 233.426 24.9346 233.426 30.6139C233.426 36.0646 227.872 40.448 221.022 40.448C213.339 40.448 208.664 36.1408 208.664 29.2417V12.8135Z" fill="#002444"/>
<path d="M185.698 40.448C182.366 40.448 178.293 39.152 176.117 37.3987L178.339 34.7686C180.514 36.2933 183.522 37.2081 186.392 37.2081C189.169 37.2081 191.067 36.3314 191.067 35.0355C191.067 31.8718 176.904 31.3763 176.904 25.4682C176.904 22.3807 180.606 20.0938 185.513 20.0938C188.753 20.0938 191.622 20.8942 194.584 22.6476L192.363 25.3157C190.558 24.096 187.781 23.3337 185.328 23.3337C182.782 23.3337 181.07 24.2104 181.07 25.4301C181.07 28.5175 195.233 28.67 195.233 34.9211C195.233 38.1229 191.252 40.448 185.698 40.448Z" fill="#002444"/>
<path d="M113.325 23.1813C108.882 23.1813 106.151 25.9638 106.151 30.4997V40.067H102.078V29.623C102.078 23.7531 106.521 19.9414 113.325 19.9414C120.129 19.9414 124.572 23.7531 124.572 29.623V40.067H120.499V30.4997C120.499 25.8495 117.907 23.1813 113.325 23.1813Z" fill="#002444"/>
<path d="M95.1172 15.7106C95.1172 14.5671 96.2738 13.6523 97.6626 13.6523C99.0508 13.6523 100.208 14.5671 100.208 15.7106C100.208 16.8923 99.0508 17.8071 97.6626 17.8071C96.2738 17.8071 95.1172 16.8923 95.1172 15.7106ZM99.6991 21.0088V40.0671H95.626V21.0088H99.6991Z" fill="#002444"/>
<path d="M70.3047 40.0668V13.3853H93.7243V16.6251H74.4706V25.0489H91.4106V28.2888H74.4706V40.0668H70.3047Z" fill="#002444"/>
<path fill-rule="evenodd" clip-rule="evenodd" d="M154.878 30.8426C154.878 26.8785 158.349 24.0197 163.163 24.0197C167.93 24.0197 171.401 26.6498 171.401 30.4233C171.401 34.235 167.791 37.1319 163.163 37.1319C158.534 37.1319 154.878 34.3494 154.878 30.8426ZM154.878 36.522H154.97C156.59 38.9233 160.2 40.4861 164.088 40.4861C170.661 40.4861 175.566 36.179 175.566 30.4996C175.566 25.0489 170.012 20.6655 163.163 20.6655C157.935 20.6655 154.101 22.6591 152.183 26.0942C152.312 26.2065 152.439 26.321 152.561 26.4342C152.931 26.7759 153.27 27.1162 153.517 27.3703C153.641 27.4976 153.782 27.6437 153.922 27.7975C154.104 27.9954 154.051 28.274 153.805 28.4198C153.706 28.4784 153.59 28.5067 153.476 28.5066H151.217C150.945 29.5328 150.805 30.6449 150.805 31.8336V39.8319C150.805 41.6844 152.628 43.1861 154.878 43.1861V36.522Z" fill="#23920A"/>
<path fill-rule="evenodd" clip-rule="evenodd" d="M144.866 29.89C144.866 34.5402 142.274 37.2084 137.692 37.2084C133.249 37.2084 130.518 34.4258 130.518 29.89V21.0088H126.445V30.7666C126.445 36.6366 130.888 40.4482 137.692 40.4482C144.496 40.4482 148.939 36.6366 148.939 30.7666V28.5068H146.831C146.717 28.5068 146.602 28.4786 146.503 28.42C146.257 28.2742 146.204 27.9956 146.385 27.7977C146.527 27.6439 146.667 27.4978 146.791 27.3705C147.038 27.1163 147.378 26.776 147.747 26.4344C148.114 26.095 148.52 25.7442 148.9 25.4746C148.913 25.4653 148.926 25.456 148.939 25.4467V24.363C148.939 22.5105 147.116 21.0088 144.866 21.0088V29.89Z" fill="#23920A"/>
<path d="M29.6562 38.8751C29.6562 40.2186 30.9803 41.3077 32.6118 41.3077C34.2433 41.3077 35.5674 40.2186 35.5674 38.8751C35.5674 37.5315 34.2433 36.4424 32.6118 36.4424C30.9803 36.4424 29.6562 37.5315 29.6562 38.8751Z" fill="#005BAA"/>
<path d="M29.9057 32.005L18.6094 41.3077V30.3669L27.5976 22.9648L38.5749 32.005H29.9057Z" fill="#F8BA33"/>
<path d="M30.0228 24.9617L18.6094 34.1072V30.3568L27.6004 22.9644L30.0228 24.9617Z" fill="#E8A719"/>
<path d="M27.5887 22.9649L18.4375 15.4287H37.633L46.7842 22.9649H27.5887Z" fill="#23920A"/>
<path d="M23.2758 19.4126L18.6094 15.4287H37.6338L42.4732 19.4126H23.2758Z" fill="url(#paint0_linear_14754_3504)"/>
<defs>
<linearGradient id="paint0_linear_14754_3504" x1="34.1829" y1="19.4126" x2="37.0346" y2="13.7191" gradientUnits="userSpaceOnUse">
<stop stop-color="#00B512"/>
<stop offset="1" stop-color="#67EF82"/>
</linearGradient>
</defs>
</svg>
